<svg xmlns="http://www.w3.org/2000/svg" viewBox="0 0 20.16 23.02"><path d="M7.2,2.28a4.28,4.28,0,0,1,2.23-.67,16.93,16.93,0,0,1,4.44.12,2.9,2.9,0,0,1,1.41.57c.06-.08.11-.14.16-.22a5.65,5.65,0,0,1,1.9-1.7A8.9,8.9,0,0,1,18.29,0a.18.18,0,0,1,.27.13,4.68,4.68,0,0,1,.05,3.49c0,.08-.05.22,0,.27A4.35,4.35,0,0,1,20,6.64,11.78,11.78,0,0,1,20,10.48a5.55,5.55,0,0,1-3.59,4.19,9.33,9.33,0,0,1-2.45.65,1.6,1.6,0,0,0-.27,0,3.86,3.86,0,0,1,.74,2c.06.59,0,1.18,0,1.78V23H8V20c-.28,0-.53.09-.79.11a5,5,0,0,1-3.72-.94,5,5,0,0,1-1.13-1.37c-.42-.71-.88-1.4-1.36-2.07a4.46,4.46,0,0,0-.69-.59A2.85,2.85,0,0,1,0,14.73a2.14,2.14,0,0,1,.48-.13,2.81,2.81,0,0,1,2.61,1.47,3.77,3.77,0,0,0,2.14,1.71,4.3,4.3,0,0,0,2.56,0c.11,0,.2-.07.21-.22a3.88,3.88,0,0,1,.75-2.15c-.39-.07-.76-.13-1.12-.21A8,8,0,0,1,4.9,14.08a5.28,5.28,0,0,1-2.51-3.91,11.72,11.72,0,0,1,.28-4.29A3.64,3.64,0,0,1,3.78,4a.28.28,0,0,0,.08-.37A4.54,4.54,0,0,1,3.91.15C4,0,4.05,0,4.18,0a4.32,4.32,0,0,1,2.17,1.3C6.65,1.62,6.91,2,7.2,2.28Z" transform="translate(0 0)" style="fill:#444"/></svg>