<svg xmlns="http://www.w3.org/2000/svg" viewBox="0 0 60 48.01"><path d="M0,23.77c1-.9,2-1.83,3.05-2.7Q14.92,11.16,26.8,1.27a4.66,4.66,0,0,1,6.42,0l8.12,6.8c.13.11.28.21.5.38,0-.29,0-.49,0-.69,0-2,0-4,0-6,0-1.33.38-1.71,1.7-1.71h6.27c1.2,0,1.59.38,1.59,1.57,0,4.74,0,9.49,0,14.23a1.07,1.07,0,0,0,.43.94q3.65,3,7.25,6a3.14,3.14,0,0,1,.77.86,1.15,1.15,0,0,1-.24,1.35q-1,1.25-2.07,2.46a1.28,1.28,0,0,1-2,.15l-19-15.83L30,6.4,25.67,10,4.53,27.63a1.31,1.31,0,0,1-2.16-.16C1.56,26.52.79,25.55,0,24.59Z" style="fill:#444"/><path d="M34.73,48V33.75H25.22V48h-.68c-4.41,0-8.82,0-13.23,0A2.67,2.67,0,0,1,8.5,45.22c.07-5.7,0-11.4,0-17.1a1.11,1.11,0,0,1,.47-1q10.25-8.43,20.46-16.88c.43-.36.66-.3,1.06,0q10.2,8.43,20.42,16.83a1.17,1.17,0,0,1,.48,1c0,5.7,0,11.4,0,17.1A2.67,2.67,0,0,1,48.65,48c-4.43,0-8.86,0-13.29,0Z" style="fill:#444"/></svg>