<svg xmlns="http://www.w3.org/2000/svg" viewBox="0 0 124.68 44.98"><path d="M64.37,14l5.93-.39a4.61,4.61,0,0,0,.79,2.21A3.3,3.3,0,0,0,73.84,17a3,3,0,0,0,2.06-.63A1.82,1.82,0,0,0,76.62,15a1.79,1.79,0,0,0-.68-1.4,7.76,7.76,0,0,0-3.18-1.17C70,11.78,68.07,11,66.92,9.93A4.88,4.88,0,0,1,65.16,6a5.3,5.3,0,0,1,.9-2.94A5.93,5.93,0,0,1,68.77.93a12.74,12.74,0,0,1,5-.79,10.07,10.07,0,0,1,5.89,1.44A6.17,6.17,0,0,1,82,6.16l-5.86.34a3.18,3.18,0,0,0-1-2,3.16,3.16,0,0,0-2.07-.63,2.6,2.6,0,0,0-1.63.45,1.4,1.4,0,0,0-.54,1.13,1.09,1.09,0,0,0,.45.86,5,5,0,0,0,2.1.74,26.21,26.21,0,0,1,5.87,1.79,6,6,0,0,1,2.57,2.23,5.62,5.62,0,0,1,.79,3,6.31,6.31,0,0,1-1.09,3.58,6.72,6.72,0,0,1-3,2.48,12,12,0,0,1-4.84.86c-3.43,0-5.8-.65-7.13-2A7.76,7.76,0,0,1,64.37,14ZM1.42,20.66V.5h10.4a14.8,14.8,0,0,1,4.42.5A4.67,4.67,0,0,1,18.7,2.85a5.56,5.56,0,0,1,.94,3.27A5.38,5.38,0,0,1,17,11a7.1,7.1,0,0,1-2.19.79,6.48,6.48,0,0,1,1.63.74,6.59,6.59,0,0,1,1,1.06,6.94,6.94,0,0,1,.88,1.26l3,5.85H14.21l-3.34-6.21a4.86,4.86,0,0,0-1.13-1.55,2.64,2.64,0,0,0-1.53-.48H7.67v8.19H1.42Zm6.25-12h2.64A9.05,9.05,0,0,0,12,8.39a1.55,1.55,0,0,0,1-.63,2,2,0,0,0-.23-2.66,3.78,3.78,0,0,0-2.32-.52H7.67ZM0,37.94l5.93-.38a4.66,4.66,0,0,0,.79,2.21A3.31,3.31,0,0,0,9.47,41a3.06,3.06,0,0,0,2.06-.63,1.85,1.85,0,0,0,.72-1.45,1.79,1.79,0,0,0-.68-1.4,7.91,7.91,0,0,0-3.2-1.17c-2.73-.61-4.69-1.42-5.84-2.46A4.88,4.88,0,0,1,.77,30a5.19,5.19,0,0,1,.9-2.93A6,6,0,0,1,4.38,24.9a12.93,12.93,0,0,1,5-.79,10,10,0,0,1,5.88,1.45,6.13,6.13,0,0,1,2.39,4.58l-5.86.33a3.15,3.15,0,0,0-1-2,3,3,0,0,0-2.08-.61,2.43,2.43,0,0,0-1.62.47,1.33,1.33,0,0,0-.54,1.13,1.09,1.09,0,0,0,.45.86,4.9,4.9,0,0,0,2.1.74,25.92,25.92,0,0,1,5.86,1.79A6,6,0,0,1,17.5,35.1a5.8,5.8,0,0,1,.81,3,6.47,6.47,0,0,1-1.08,3.56,6.85,6.85,0,0,1-3,2.48A12.17,12.17,0,0,1,9.38,45C6,45,3.59,44.32,2.26,43A7.88,7.88,0,0,1,0,37.94Z" style="fill:#bbbaba"/><path d="M30,36.36,35.46,38a10.39,10.39,0,0,1-1.74,3.83,7.56,7.56,0,0,1-2.93,2.33,11.27,11.27,0,0,1-4.47.78A13.06,13.06,0,0,1,21,44a8.52,8.52,0,0,1-3.61-3.36,11.38,11.38,0,0,1-1.51-6.16c0-3.34.88-5.91,2.66-7.69s4.29-2.69,7.54-2.69a10.33,10.33,0,0,1,6,1.54,9.29,9.29,0,0,1,3.24,4.73l-5.5,1.22a4.83,4.83,0,0,0-.61-1.35,3.61,3.61,0,0,0-1.28-1.11,3.67,3.67,0,0,0-1.69-.38,3.61,3.61,0,0,0-3.25,1.71,7.22,7.22,0,0,0-.86,4c0,2.24.34,3.77,1,4.61A3.46,3.46,0,0,0,26,40.29a3.51,3.51,0,0,0,2.71-1A6.43,6.43,0,0,0,30,36.36ZM42.74,24.45H49v7.06h6.81V24.45h6.27V44.62H55.78V36.45H49v8.17H42.74Z" style="fill:#bbbaba"/><path d="M61.19,34.53c0-3.29.92-5.86,2.75-7.69a10.43,10.43,0,0,1,7.67-2.75c3.36,0,5.93.9,7.76,2.71s2.73,4.33,2.73,7.58a12.41,12.41,0,0,1-1.2,5.79,8.37,8.37,0,0,1-3.43,3.52A11.41,11.41,0,0,1,71.86,45a12.92,12.92,0,0,1-5.64-1.08,8.53,8.53,0,0,1-3.63-3.43A11.46,11.46,0,0,1,61.19,34.53Zm6.22,0A7,7,0,0,0,68.54,39a4.31,4.31,0,0,0,6.21,0c.74-.88,1.1-2.44,1.1-4.69a6.13,6.13,0,0,0-1.15-4.15,3.91,3.91,0,0,0-3.11-1.31,3.79,3.79,0,0,0-3,1.33c-.77.88-1.16,2.34-1.16,4.4Zm21.07,0a10.45,10.45,0,0,1,2.75-7.69,10.43,10.43,0,0,1,7.67-2.75c3.36,0,6,.9,7.76,2.71a10.27,10.27,0,0,1,2.73,7.58,12.41,12.41,0,0,1-1.2,5.79,8.37,8.37,0,0,1-3.43,3.52A11.41,11.41,0,0,1,99.15,45a12.92,12.92,0,0,1-5.64-1.08,8.53,8.53,0,0,1-3.63-3.43A11.46,11.46,0,0,1,88.48,34.53Zm6.23,0A7,7,0,0,0,95.83,39,4.31,4.31,0,0,0,102,39c.74-.88,1.1-2.44,1.1-4.69A6.13,6.13,0,0,0,102,30.14a3.91,3.91,0,0,0-3.11-1.31,3.76,3.76,0,0,0-3,1.33c-.77.88-1.15,2.34-1.15,4.4Z" style="fill:#bbbaba"/><path d="M108.73,24.45H115v15.2h9.72v5h-16V24.45Z" style="fill:#bbbaba"/><ellipse cx="94.84" cy="13.16" rx="14.21" ry="11.68" transform="translate(11.18 59.73) rotate(-37)" style="fill:none;stroke:#bbbaba;stroke-miterlimit:10"/><path d="M88,11.71l2.26-1.58L93,14.08a7.54,7.54,0,0,1,1.11,2A2.64,2.64,0,0,1,94,17.84a3.74,3.74,0,0,1-1.4,1.65,5,5,0,0,1-1.92.9,2.65,2.65,0,0,1-1.56-.23A3.71,3.71,0,0,1,87.76,19l1.94-1.8a2.79,2.79,0,0,0,.58.65.89.89,0,0,0,.55.18.69.69,0,0,0,.42-.15.76.76,0,0,0,.37-.68,2.28,2.28,0,0,0-.48-1.06L88,11.71Zm6.77,2.5,2-1.62a1.93,1.93,0,0,0,.84.58A1.42,1.42,0,0,0,99,12.92a1.33,1.33,0,0,0,.58-.74.78.78,0,0,0-.49-1,.8.8,0,0,0-.21,0,3.58,3.58,0,0,0-1.44.39,6,6,0,0,1-2.73.58,2.14,2.14,0,0,1-1.62-1,2.39,2.39,0,0,1-.43-1.28A2.56,2.56,0,0,1,93,8.39a5.49,5.49,0,0,1,1.58-1.53,4.51,4.51,0,0,1,2.5-1,2.72,2.72,0,0,1,2,1l-2,1.6a1.22,1.22,0,0,0-1.69-.23l-.07.07a1.06,1.06,0,0,0-.47.59A.56.56,0,0,0,95,9.5a.5.5,0,0,0,.38.2,2.25,2.25,0,0,0,1-.27,12.07,12.07,0,0,1,2.57-.84,2.64,2.64,0,0,1,1.49.16,2.27,2.27,0,0,1,1,.88,2.85,2.85,0,0,1,.52,1.56,2.74,2.74,0,0,1-.45,1.64,5.47,5.47,0,0,1-1.53,1.54,4.44,4.44,0,0,1-3.07,1.08,3.31,3.31,0,0,1-2.12-1.24Z" style="fill:#bbbaba"/></svg>